<svg width="50" height="60" viewBox="0 0 50 60" fill="none" xmlns="http://www.w3.org/2000/svg">
<path d="M1 12C1 10.3431 2.34315 9 4 9H34C35.6569 9 37 10.3431 37 12V14C37 14.5523 36.5523 15 36 15H2C1.44771 15 1 14.5523 1 14V12Z" fill="white" stroke="black" stroke-width="2"/>
<path d="M1 18C1 16.3431 2.34315 15 4 15H34C35.6569 15 37 16.3431 37 18V46C37 48.7614 34.7614 51 32 51H6C3.23858 51 1 48.7614 1 46V18Z" fill="white" stroke="black" stroke-width="2"/>
<rect x="43" y="17" width="6" height="33" rx="2" fill="white" stroke="black" stroke-width="2"/>
<rect x="42" y="20" width="8" height="2" fill="black"/>
<rect x="42" y="45" width="8" height="2" fill="black"/>
<path d="M5.5 29C5.5 29.2761 5.27611 29.5 5 29.5C4.72389 29.5 4.5 29.2761 4.5 29C4.5 28.7239 4.72389 28.5 5 28.5C5.27611 28.5 5.5 28.7239 5.5 29ZM5.5 37C5.5 37.2761 5.27611 37.5 5 37.5C4.72389 37.5 4.5 37.2761 4.5 37C4.5 36.7239 4.72389 36.5 5 36.5C5.27611 36.5 5.5 36.7239 5.5 37ZM7.5 33C7.5 33.2761 7.27611 33.5 7 33.5C6.72389 33.5 6.5 33.2761 6.5 33C6.5 32.7239 6.72389 32.5 7 32.5C7.27611 32.5 7.5 32.7239 7.5 33ZM13.5 29C13.5 29.2761 13.2761 29.5 13 29.5C12.7239 29.5 12.5 29.2761 12.5 29C12.5 28.7239 12.7239 28.5 13 28.5C13.2761 28.5 13.5 28.7239 13.5 29ZM13.5 37C13.5 37.2761 13.2761 37.5 13 37.5C12.7239 37.5 12.5 37.2761 12.5 37C12.5 36.7239 12.7239 36.5 13 36.5C13.2761 36.5 13.5 36.7239 13.5 37ZM15.5 33C15.5 33.2761 15.2761 33.5 15 33.5C14.7239 33.5 14.5 33.2761 14.5 33C14.5 32.7239 14.7239 32.5 15 32.5C15.2761 32.5 15.5 32.7239 15.5 33ZM21.5 29C21.5 29.2761 21.2761 29.5 21 29.5C20.7239 29.5 20.5 29.2761 20.5 29C20.5 28.7239 20.7239 28.5 21 28.5C21.2761 28.5 21.5 28.7239 21.5 29ZM21.5 37C21.5 37.2761 21.2761 37.5 21 37.5C20.7239 37.5 20.5 37.2761 20.5 37C20.5 36.7239 20.7239 36.5 21 36.5C21.2761 36.5 21.5 36.7239 21.5 37ZM23.5 33C23.5 33.2761 23.2761 33.5 23 33.5C22.7239 33.5 22.5 33.2761 22.5 33C22.5 32.7239 22.7239 32.5 23 32.5C23.2761 32.5 23.5 32.7239 23.5 33ZM9.5 29C9.5 29.2761 9.27611 29.5 9 29.5C8.72389 29.5 8.5 29.2761 8.5 29C8.5 28.7239 8.72389 28.5 9 28.5C9.27611 28.5 9.5 28.7239 9.5 29ZM9.5 37C9.5 37.2761 9.27611 37.5 9 37.5C8.72389 37.5 8.5 37.2761 8.5 37C8.5 36.7239 8.72389 36.5 9 36.5C9.27611 36.5 9.5 36.7239 9.5 37ZM11.5 33C11.5 33.2761 11.2761 33.5 11 33.5C10.7239 33.5 10.5 33.2761 10.5 33C10.5 32.7239 10.7239 32.5 11 32.5C11.2761 32.5 11.5 32.7239 11.5 33ZM17.5 29C17.5 29.2761 17.2761 29.5 17 29.5C16.7239 29.5 16.5 29.2761 16.5 29C16.5 28.7239 16.7239 28.5 17 28.5C17.2761 28.5 17.5 28.7239 17.5 29ZM17.5 37C17.5 37.2761 17.2761 37.5 17 37.5C16.7239 37.5 16.5 37.2761 16.5 37C16.5 36.7239 16.7239 36.5 17 36.5C17.2761 36.5 17.5 36.7239 17.5 37ZM19.5 33C19.5 33.2761 19.2761 33.5 19 33.5C18.7239 33.5 18.5 33.2761 18.5 33C18.5 32.7239 18.7239 32.5 19 32.5C19.2761 32.5 19.5 32.7239 19.5 33ZM25.5 29C25.5 29.2761 25.2761 29.5 25 29.5C24.7239 29.5 24.5 29.2761 24.5 29C24.5 28.7239 24.7239 28.5 25 28.5C25.2761 28.5 25.5 28.7239 25.5 29ZM25.5 37C25.5 37.2761 25.2761 37.5 25 37.5C24.7239 37.5 24.5 37.2761 24.5 37C24.5 36.7239 24.7239 36.5 25 36.5C25.2761 36.5 25.5 36.7239 25.5 37ZM27.5 33C27.5 33.2761 27.2761 33.5 27 33.5C26.7239 33.5 26.5 33.2761 26.5 33C26.5 32.7239 26.7239 32.5 27 32.5C27.2761 32.5 27.5 32.7239 27.5 33ZM29.5 29C29.5 29.2761 29.2761 29.5 29 29.5C28.7239 29.5 28.5 29.2761 28.5 29C28.5 28.7239 28.7239 28.5 29 28.5C29.2761 28.5 29.5 28.7239 29.5 29ZM29.5 37C29.5 37.2761 29.2761 37.5 29 37.5C28.7239 37.5 28.5 37.2761 28.5 37C28.5 36.7239 28.7239 36.5 29 36.5C29.2761 36.5 29.5 36.7239 29.5 37ZM31.5 33C31.5 33.2761 31.2761 33.5 31 33.5C30.7239 33.5 30.5 33.2761 30.5 33C30.5 32.7239 30.7239 32.5 31 32.5C31.2761 32.5 31.5 32.7239 31.5 33ZM33.5 29C33.5 29.2761 33.2761 29.5 33 29.5C32.7239 29.5 32.5 29.2761 32.5 29C32.5 28.7239 32.7239 28.5 33 28.5C33.2761 28.5 33.5 28.7239 33.5 29ZM33.5 37C33.5 37.2761 33.2761 37.5 33 37.5C32.7239 37.5 32.5 37.2761 32.5 37C32.5 36.7239 32.7239 36.5 33 36.5C33.2761 36.5 33.5 36.7239 33.5 37Z" fill="#FF7D4E" stroke="#FF7D4E"/>
</svg>
