<svg width="50" height="60" viewBox="0 0 50 60" fill="none" xmlns="http://www.w3.org/2000/svg">
<path d="M1 11C1 9.34315 2.34315 8 4 8H36C37.6569 8 39 9.34315 39 11V49C39 50.6569 37.6569 52 36 52H4C2.34315 52 1 50.6569 1 49V11Z" fill="white" stroke="black" stroke-width="2"/>
<mask id="path-2-inside-1_537_11935" fill="white">
<path d="M5 13C5.55225 13 6 12.5523 6 12C6 11.4477 5.55225 11 5 11C4.44775 11 4 11.4477 4 12C4 12.5523 4.44775 13 5 13Z"/>
<path d="M5 21C5.55225 21 6 20.5523 6 20C6 19.4477 5.55225 19 5 19C4.44775 19 4 19.4477 4 20C4 20.5523 4.44775 21 5 21Z"/>
<path d="M8 16C8 16.5523 7.55225 17 7 17C6.44775 17 6 16.5523 6 16C6 15.4477 6.44775 15 7 15C7.55225 15 8 15.4477 8 16Z"/>
<path d="M13 13C13.5522 13 14 12.5523 14 12C14 11.4477 13.5522 11 13 11C12.4478 11 12 11.4477 12 12C12 12.5523 12.4478 13 13 13Z"/>
<path d="M14 20C14 20.5523 13.5522 21 13 21C12.4478 21 12 20.5523 12 20C12 19.4477 12.4478 19 13 19C13.5522 19 14 19.4477 14 20Z"/>
<path d="M15 17C15.5522 17 16 16.5523 16 16C16 15.4477 15.5522 15 15 15C14.4478 15 14 15.4477 14 16C14 16.5523 14.4478 17 15 17Z"/>
<path d="M22 12C22 12.5523 21.5522 13 21 13C20.4478 13 20 12.5523 20 12C20 11.4477 20.4478 11 21 11C21.5522 11 22 11.4477 22 12Z"/>
<path d="M21 21C21.5522 21 22 20.5523 22 20C22 19.4477 21.5522 19 21 19C20.4478 19 20 19.4477 20 20C20 20.5523 20.4478 21 21 21Z"/>
<path d="M24 16C24 16.5523 23.5522 17 23 17C22.4478 17 22 16.5523 22 16C22 15.4477 22.4478 15 23 15C23.5522 15 24 15.4477 24 16Z"/>
<path d="M9 13C9.55225 13 10 12.5523 10 12C10 11.4477 9.55225 11 9 11C8.44775 11 8 11.4477 8 12C8 12.5523 8.44775 13 9 13Z"/>
<path d="M10 20C10 20.5523 9.55225 21 9 21C8.44775 21 8 20.5523 8 20C8 19.4477 8.44775 19 9 19C9.55225 19 10 19.4477 10 20Z"/>
<path d="M11 17C11.5522 17 12 16.5523 12 16C12 15.4477 11.5522 15 11 15C10.4478 15 10 15.4477 10 16C10 16.5523 10.4478 17 11 17Z"/>
<path d="M18 12C18 12.5523 17.5522 13 17 13C16.4478 13 16 12.5523 16 12C16 11.4477 16.4478 11 17 11C17.5522 11 18 11.4477 18 12Z"/>
<path d="M17 21C17.5522 21 18 20.5523 18 20C18 19.4477 17.5522 19 17 19C16.4478 19 16 19.4477 16 20C16 20.5523 16.4478 21 17 21Z"/>
<path d="M20 16C20 16.5523 19.5522 17 19 17C18.4478 17 18 16.5523 18 16C18 15.4477 18.4478 15 19 15C19.5522 15 20 15.4477 20 16Z"/>
<path d="M25 13C25.5522 13 26 12.5523 26 12C26 11.4477 25.5522 11 25 11C24.4478 11 24 11.4477 24 12C24 12.5523 24.4478 13 25 13Z"/>
<path d="M26 20C26 20.5523 25.5522 21 25 21C24.4478 21 24 20.5523 24 20C24 19.4477 24.4478 19 25 19C25.5522 19 26 19.4477 26 20Z"/>
<path d="M27 17C27.5522 17 28 16.5523 28 16C28 15.4477 27.5522 15 27 15C26.4478 15 26 15.4477 26 16C26 16.5523 26.4478 17 27 17Z"/>
<path d="M30 12C30 12.5523 29.5522 13 29 13C28.4478 13 28 12.5523 28 12C28 11.4477 28.4478 11 29 11C29.5522 11 30 11.4477 30 12Z"/>
<path d="M29 21C29.5522 21 30 20.5523 30 20C30 19.4477 29.5522 19 29 19C28.4478 19 28 19.4477 28 20C28 20.5523 28.4478 21 29 21Z"/>
<path d="M31 17C31.5522 17 32 16.5523 32 16C32 15.4477 31.5522 15 31 15C30.4478 15 30 15.4477 30 16C30 16.5523 30.4478 17 31 17Z"/>
<path d="M34 12C34 12.5523 33.5522 13 33 13C32.4478 13 32 12.5523 32 12C32 11.4477 32.4478 11 33 11C33.5522 11 34 11.4477 34 12Z"/>
<path d="M33 21C33.5522 21 34 20.5523 34 20C34 19.4477 33.5522 19 33 19C32.4478 19 32 19.4477 32 20C32 20.5523 32.4478 21 33 21Z"/>
<path d="M35 17C35.5522 17 36 16.5523 36 16C36 15.4477 35.5522 15 35 15C34.4478 15 34 15.4477 34 16C34 16.5523 34.4478 17 35 17Z"/>
<path d="M5 29C5.55225 29 6 28.5523 6 28C6 27.4477 5.55225 27 5 27C4.44775 27 4 27.4477 4 28C4 28.5523 4.44775 29 5 29Z"/>
<path d="M8 24C8 24.5523 7.55225 25 7 25C6.44775 25 6 24.5523 6 24C6 23.4477 6.44775 23 7 23C7.55225 23 8 23.4477 8 24Z"/>
<path d="M14 28C14 28.5523 13.5522 29 13 29C12.4478 29 12 28.5523 12 28C12 27.4477 12.4478 27 13 27C13.5522 27 14 27.4477 14 28Z"/>
<path d="M15 25C15.5522 25 16 24.5523 16 24C16 23.4477 15.5522 23 15 23C14.4478 23 14 23.4477 14 24C14 24.5523 14.4478 25 15 25Z"/>
<path d="M21 29C21.5522 29 22 28.5523 22 28C22 27.4477 21.5522 27 21 27C20.4478 27 20 27.4477 20 28C20 28.5523 20.4478 29 21 29Z"/>
<path d="M24 24C24 24.5523 23.5522 25 23 25C22.4478 25 22 24.5523 22 24C22 23.4477 22.4478 23 23 23C23.5522 23 24 23.4477 24 24Z"/>
<path d="M10 28C10 28.5523 9.55225 29 9 29C8.44775 29 8 28.5523 8 28C8 27.4477 8.44775 27 9 27C9.55225 27 10 27.4477 10 28Z"/>
<path d="M11 25C11.5522 25 12 24.5523 12 24C12 23.4477 11.5522 23 11 23C10.4478 23 10 23.4477 10 24C10 24.5523 10.4478 25 11 25Z"/>
<path d="M17 29C17.5522 29 18 28.5523 18 28C18 27.4477 17.5522 27 17 27C16.4478 27 16 27.4477 16 28C16 28.5523 16.4478 29 17 29Z"/>
<path d="M20 24C20 24.5523 19.5522 25 19 25C18.4478 25 18 24.5523 18 24C18 23.4477 18.4478 23 19 23C19.5522 23 20 23.4477 20 24Z"/>
<path d="M26 28C26 28.5523 25.5522 29 25 29C24.4478 29 24 28.5523 24 28C24 27.4477 24.4478 27 25 27C25.5522 27 26 27.4477 26 28Z"/>
<path d="M27 25C27.5522 25 28 24.5523 28 24C28 23.4477 27.5522 23 27 23C26.4478 23 26 23.4477 26 24C26 24.5523 26.4478 25 27 25Z"/>
<path d="M29 29C29.5522 29 30 28.5523 30 28C30 27.4477 29.5522 27 29 27C28.4478 27 28 27.4477 28 28C28 28.5523 28.4478 29 29 29Z"/>
<path d="M31 25C31.5522 25 32 24.5523 32 24C32 23.4477 31.5522 23 31 23C30.4478 23 30 23.4477 30 24C30 24.5523 30.4478 25 31 25Z"/>
<path d="M33 29C33.5522 29 34 28.5523 34 28C34 27.4477 33.5522 27 33 27C32.4478 27 32 27.4477 32 28C32 28.5523 32.4478 29 33 29Z"/>
<path d="M35 25C35.5522 25 36 24.5523 36 24C36 23.4477 35.5522 23 35 23C34.4478 23 34 23.4477 34 24C34 24.5523 34.4478 25 35 25Z"/>
<path d="M5 37C5.55225 37 6 36.5523 6 36C6 35.4477 5.55225 35 5 35C4.44775 35 4 35.4477 4 36C4 36.5523 4.44775 37 5 37Z"/>
<path d="M8 32C8 32.5523 7.55225 33 7 33C6.44775 33 6 32.5523 6 32C6 31.4477 6.44775 31 7 31C7.55225 31 8 31.4477 8 32Z"/>
<path d="M14 36C14 36.5523 13.5522 37 13 37C12.4478 37 12 36.5523 12 36C12 35.4477 12.4478 35 13 35C13.5522 35 14 35.4477 14 36Z"/>
<path d="M15 33C15.5522 33 16 32.5523 16 32C16 31.4477 15.5522 31 15 31C14.4478 31 14 31.4477 14 32C14 32.5523 14.4478 33 15 33Z"/>
<path d="M21 37C21.5522 37 22 36.5523 22 36C22 35.4477 21.5522 35 21 35C20.4478 35 20 35.4477 20 36C20 36.5523 20.4478 37 21 37Z"/>
<path d="M24 32C24 32.5523 23.5522 33 23 33C22.4478 33 22 32.5523 22 32C22 31.4477 22.4478 31 23 31C23.5522 31 24 31.4477 24 32Z"/>
<path d="M10 36C10 36.5523 9.55225 37 9 37C8.44775 37 8 36.5523 8 36C8 35.4477 8.44775 35 9 35C9.55225 35 10 35.4477 10 36Z"/>
<path d="M11 33C11.5522 33 12 32.5523 12 32C12 31.4477 11.5522 31 11 31C10.4478 31 10 31.4477 10 32C10 32.5523 10.4478 33 11 33Z"/>
<path d="M17 37C17.5522 37 18 36.5523 18 36C18 35.4477 17.5522 35 17 35C16.4478 35 16 35.4477 16 36C16 36.5523 16.4478 37 17 37Z"/>
<path d="M20 32C20 32.5523 19.5522 33 19 33C18.4478 33 18 32.5523 18 32C18 31.4477 18.4478 31 19 31C19.5522 31 20 31.4477 20 32Z"/>
<path d="M26 36C26 36.5523 25.5522 37 25 37C24.4478 37 24 36.5523 24 36C24 35.4477 24.4478 35 25 35C25.5522 35 26 35.4477 26 36Z"/>
<path d="M27 33C27.5522 33 28 32.5523 28 32C28 31.4477 27.5522 31 27 31C26.4478 31 26 31.4477 26 32C26 32.5523 26.4478 33 27 33Z"/>
<path d="M29 37C29.5522 37 30 36.5523 30 36C30 35.4477 29.5522 35 29 35C28.4478 35 28 35.4477 28 36C28 36.5523 28.4478 37 29 37Z"/>
<path d="M31 33C31.5522 33 32 32.5523 32 32C32 31.4477 31.5522 31 31 31C30.4478 31 30 31.4477 30 32C30 32.5523 30.4478 33 31 33Z"/>
<path d="M33 37C33.5522 37 34 36.5523 34 36C34 35.4477 33.5522 35 33 35C32.4478 35 32 35.4477 32 36C32 36.5523 32.4478 37 33 37Z"/>
<path d="M35 33C35.5522 33 36 32.5523 36 32C36 31.4477 35.5522 31 35 31C34.4478 31 34 31.4477 34 32C34 32.5523 34.4478 33 35 33Z"/>
<path d="M8 40C8 40.5523 7.55225 41 7 41C6.44775 41 6 40.5523 6 40C6 39.4477 6.44775 39 7 39C7.55225 39 8 39.4477 8 40Z"/>
<path d="M15 41C15.5522 41 16 40.5523 16 40C16 39.4477 15.5522 39 15 39C14.4478 39 14 39.4477 14 40C14 40.5523 14.4478 41 15 41Z"/>
<path d="M24 40C24 40.5523 23.5522 41 23 41C22.4478 41 22 40.5523 22 40C22 39.4477 22.4478 39 23 39C23.5522 39 24 39.4477 24 40Z"/>
<path d="M11 41C11.5522 41 12 40.5523 12 40C12 39.4477 11.5522 39 11 39C10.4478 39 10 39.4477 10 40C10 40.5523 10.4478 41 11 41Z"/>
<path d="M20 40C20 40.5523 19.5522 41 19 41C18.4478 41 18 40.5523 18 40C18 39.4477 18.4478 39 19 39C19.5522 39 20 39.4477 20 40Z"/>
<path d="M27 41C27.5522 41 28 40.5523 28 40C28 39.4477 27.5522 39 27 39C26.4478 39 26 39.4477 26 40C26 40.5523 26.4478 41 27 41Z"/>
<path d="M31 41C31.5522 41 32 40.5523 32 40C32 39.4477 31.5522 39 31 39C30.4478 39 30 39.4477 30 40C30 40.5523 30.4478 41 31 41Z"/>
<path d="M35 41C35.5522 41 36 40.5523 36 40C36 39.4477 35.5522 39 35 39C34.4478 39 34 39.4477 34 40C34 40.5523 34.4478 41 35 41Z"/>
<path d="M5 45C5.55225 45 6 44.5523 6 44C6 43.4477 5.55225 43 5 43C4.44775 43 4 43.4477 4 44C4 44.5523 4.44775 45 5 45Z"/>
<path d="M14 44C14 44.5523 13.5522 45 13 45C12.4478 45 12 44.5523 12 44C12 43.4477 12.4478 43 13 43C13.5522 43 14 43.4477 14 44Z"/>
<path d="M21 45C21.5522 45 22 44.5523 22 44C22 43.4477 21.5522 43 21 43C20.4478 43 20 43.4477 20 44C20 44.5523 20.4478 45 21 45Z"/>
<path d="M10 44C10 44.5523 9.55225 45 9 45C8.44775 45 8 44.5523 8 44C8 43.4477 8.44775 43 9 43C9.55225 43 10 43.4477 10 44Z"/>
<path d="M17 45C17.5522 45 18 44.5523 18 44C18 43.4477 17.5522 43 17 43C16.4478 43 16 43.4477 16 44C16 44.5523 16.4478 45 17 45Z"/>
<path d="M26 44C26 44.5523 25.5522 45 25 45C24.4478 45 24 44.5523 24 44C24 43.4477 24.4478 43 25 43C25.5522 43 26 43.4477 26 44Z"/>
<path d="M29 45C29.5522 45 30 44.5523 30 44C30 43.4477 29.5522 43 29 43C28.4478 43 28 43.4477 28 44C28 44.5523 28.4478 45 29 45Z"/>
<path d="M33 45C33.5522 45 34 44.5523 34 44C34 43.4477 33.5522 43 33 43C32.4478 43 32 43.4477 32 44C32 44.5523 32.4478 45 33 45Z"/>
<path d="M8 48C8 48.5523 7.55225 49 7 49C6.44775 49 6 48.5523 6 48C6 47.4477 6.44775 47 7 47C7.55225 47 8 47.4477 8 48Z"/>
<path d="M15 49C15.5522 49 16 48.5523 16 48C16 47.4477 15.5522 47 15 47C14.4478 47 14 47.4477 14 48C14 48.5523 14.4478 49 15 49Z"/>
<path d="M24 48C24 48.5523 23.5522 49 23 49C22.4478 49 22 48.5523 22 48C22 47.4477 22.4478 47 23 47C23.5522 47 24 47.4477 24 48Z"/>
<path d="M11 49C11.5522 49 12 48.5523 12 48C12 47.4477 11.5522 47 11 47C10.4478 47 10 47.4477 10 48C10 48.5523 10.4478 49 11 49Z"/>
<path d="M20 48C20 48.5523 19.5522 49 19 49C18.4478 49 18 48.5523 18 48C18 47.4477 18.4478 47 19 47C19.5522 47 20 47.4477 20 48Z"/>
<path d="M27 49C27.5522 49 28 48.5523 28 48C28 47.4477 27.5522 47 27 47C26.4478 47 26 47.4477 26 48C26 48.5523 26.4478 49 27 49Z"/>
<path d="M31 49C31.5522 49 32 48.5523 32 48C32 47.4477 31.5522 47 31 47C30.4478 47 30 47.4477 30 48C30 48.5523 30.4478 49 31 49Z"/>
<path d="M35 49C35.5522 49 36 48.5523 36 48C36 47.4477 35.5522 47 35 47C34.4478 47 34 47.4477 34 48C34 48.5523 34.4478 49 35 49Z"/>
</mask>
<path d="M5 13C5.55225 13 6 12.5523 6 12C6 11.4477 5.55225 11 5 11C4.44775 11 4 11.4477 4 12C4 12.5523 4.44775 13 5 13Z" fill="#FF7D4E"/>
<path d="M5 21C5.55225 21 6 20.5523 6 20C6 19.4477 5.55225 19 5 19C4.44775 19 4 19.4477 4 20C4 20.5523 4.44775 21 5 21Z" fill="#FF7D4E"/>
<path d="M8 16C8 16.5523 7.55225 17 7 17C6.44775 17 6 16.5523 6 16C6 15.4477 6.44775 15 7 15C7.55225 15 8 15.4477 8 16Z" fill="#FF7D4E"/>
<path d="M13 13C13.5522 13 14 12.5523 14 12C14 11.4477 13.5522 11 13 11C12.4478 11 12 11.4477 12 12C12 12.5523 12.4478 13 13 13Z" fill="#FF7D4E"/>
<path d="M14 20C14 20.5523 13.5522 21 13 21C12.4478 21 12 20.5523 12 20C12 19.4477 12.4478 19 13 19C13.5522 19 14 19.4477 14 20Z" fill="#FF7D4E"/>
<path d="M15 17C15.5522 17 16 16.5523 16 16C16 15.4477 15.5522 15 15 15C14.4478 15 14 15.4477 14 16C14 16.5523 14.4478 17 15 17Z" fill="#FF7D4E"/>
<path d="M22 12C22 12.5523 21.5522 13 21 13C20.4478 13 20 12.5523 20 12C20 11.4477 20.4478 11 21 11C21.5522 11 22 11.4477 22 12Z" fill="#FF7D4E"/>
<path d="M21 21C21.5522 21 22 20.5523 22 20C22 19.4477 21.5522 19 21 19C20.4478 19 20 19.4477 20 20C20 20.5523 20.4478 21 21 21Z" fill="#FF7D4E"/>
<path d="M24 16C24 16.5523 23.5522 17 23 17C22.4478 17 22 16.5523 22 16C22 15.4477 22.4478 15 23 15C23.5522 15 24 15.4477 24 16Z" fill="#FF7D4E"/>
<path d="M9 13C9.55225 13 10 12.5523 10 12C10 11.4477 9.55225 11 9 11C8.44775 11 8 11.4477 8 12C8 12.5523 8.44775 13 9 13Z" fill="#FF7D4E"/>
<path d="M10 20C10 20.5523 9.55225 21 9 21C8.44775 21 8 20.5523 8 20C8 19.4477 8.44775 19 9 19C9.55225 19 10 19.4477 10 20Z" fill="#FF7D4E"/>
<path d="M11 17C11.5522 17 12 16.5523 12 16C12 15.4477 11.5522 15 11 15C10.4478 15 10 15.4477 10 16C10 16.5523 10.4478 17 11 17Z" fill="#FF7D4E"/>
<path d="M18 12C18 12.5523 17.5522 13 17 13C16.4478 13 16 12.5523 16 12C16 11.4477 16.4478 11 17 11C17.5522 11 18 11.4477 18 12Z" fill="#FF7D4E"/>
<path d="M17 21C17.5522 21 18 20.5523 18 20C18 19.4477 17.5522 19 17 19C16.4478 19 16 19.4477 16 20C16 20.5523 16.4478 21 17 21Z" fill="#FF7D4E"/>
<path d="M20 16C20 16.5523 19.5522 17 19 17C18.4478 17 18 16.5523 18 16C18 15.4477 18.4478 15 19 15C19.5522 15 20 15.4477 20 16Z" fill="#FF7D4E"/>
<path d="M25 13C25.5522 13 26 12.5523 26 12C26 11.4477 25.5522 11 25 11C24.4478 11 24 11.4477 24 12C24 12.5523 24.4478 13 25 13Z" fill="#FF7D4E"/>
<path d="M26 20C26 20.5523 25.5522 21 25 21C24.4478 21 24 20.5523 24 20C24 19.4477 24.4478 19 25 19C25.5522 19 26 19.4477 26 20Z" fill="#FF7D4E"/>
<path d="M27 17C27.5522 17 28 16.5523 28 16C28 15.4477 27.5522 15 27 15C26.4478 15 26 15.4477 26 16C26 16.5523 26.4478 17 27 17Z" fill="#FF7D4E"/>
<path d="M30 12C30 12.5523 29.5522 13 29 13C28.4478 13 28 12.5523 28 12C28 11.4477 28.4478 11 29 11C29.5522 11 30 11.4477 30 12Z" fill="#FF7D4E"/>
<path d="M29 21C29.5522 21 30 20.5523 30 20C30 19.4477 29.5522 19 29 19C28.4478 19 28 19.4477 28 20C28 20.5523 28.4478 21 29 21Z" fill="#FF7D4E"/>
<path d="M31 17C31.5522 17 32 16.5523 32 16C32 15.4477 31.5522 15 31 15C30.4478 15 30 15.4477 30 16C30 16.5523 30.4478 17 31 17Z" fill="#FF7D4E"/>
<path d="M34 12C34 12.5523 33.5522 13 33 13C32.4478 13 32 12.5523 32 12C32 11.4477 32.4478 11 33 11C33.5522 11 34 11.4477 34 12Z" fill="#FF7D4E"/>
<path d="M33 21C33.5522 21 34 20.5523 34 20C34 19.4477 33.5522 19 33 19C32.4478 19 32 19.4477 32 20C32 20.5523 32.4478 21 33 21Z" fill="#FF7D4E"/>
<path d="M35 17C35.5522 17 36 16.5523 36 16C36 15.4477 35.5522 15 35 15C34.4478 15 34 15.4477 34 16C34 16.5523 34.4478 17 35 17Z" fill="#FF7D4E"/>
<path d="M5 29C5.55225 29 6 28.5523 6 28C6 27.4477 5.55225 27 5 27C4.44775 27 4 27.4477 4 28C4 28.5523 4.44775 29 5 29Z" fill="#FF7D4E"/>
<path d="M8 24C8 24.5523 7.55225 25 7 25C6.44775 25 6 24.5523 6 24C6 23.4477 6.44775 23 7 23C7.55225 23 8 23.4477 8 24Z" fill="#FF7D4E"/>
<path d="M14 28C14 28.5523 13.5522 29 13 29C12.4478 29 12 28.5523 12 28C12 27.4477 12.4478 27 13 27C13.5522 27 14 27.4477 14 28Z" fill="#FF7D4E"/>
<path d="M15 25C15.5522 25 16 24.5523 16 24C16 23.4477 15.5522 23 15 23C14.4478 23 14 23.4477 14 24C14 24.5523 14.4478 25 15 25Z" fill="#FF7D4E"/>
<path d="M21 29C21.5522 29 22 28.5523 22 28C22 27.4477 21.5522 27 21 27C20.4478 27 20 27.4477 20 28C20 28.5523 20.4478 29 21 29Z" fill="#FF7D4E"/>
<path d="M24 24C24 24.5523 23.5522 25 23 25C22.4478 25 22 24.5523 22 24C22 23.4477 22.4478 23 23 23C23.5522 23 24 23.4477 24 24Z" fill="#FF7D4E"/>
<path d="M10 28C10 28.5523 9.55225 29 9 29C8.44775 29 8 28.5523 8 28C8 27.4477 8.44775 27 9 27C9.55225 27 10 27.4477 10 28Z" fill="#FF7D4E"/>
<path d="M11 25C11.5522 25 12 24.5523 12 24C12 23.4477 11.5522 23 11 23C10.4478 23 10 23.4477 10 24C10 24.5523 10.4478 25 11 25Z" fill="#FF7D4E"/>
<path d="M17 29C17.5522 29 18 28.5523 18 28C18 27.4477 17.5522 27 17 27C16.4478 27 16 27.4477 16 28C16 28.5523 16.4478 29 17 29Z" fill="#FF7D4E"/>
<path d="M20 24C20 24.5523 19.5522 25 19 25C18.4478 25 18 24.5523 18 24C18 23.4477 18.4478 23 19 23C19.5522 23 20 23.4477 20 24Z" fill="#FF7D4E"/>
<path d="M26 28C26 28.5523 25.5522 29 25 29C24.4478 29 24 28.5523 24 28C24 27.4477 24.4478 27 25 27C25.5522 27 26 27.4477 26 28Z" fill="#FF7D4E"/>
<path d="M27 25C27.5522 25 28 24.5523 28 24C28 23.4477 27.5522 23 27 23C26.4478 23 26 23.4477 26 24C26 24.5523 26.4478 25 27 25Z" fill="#FF7D4E"/>
<path d="M29 29C29.5522 29 30 28.5523 30 28C30 27.4477 29.5522 27 29 27C28.4478 27 28 27.4477 28 28C28 28.5523 28.4478 29 29 29Z" fill="#FF7D4E"/>
<path d="M31 25C31.5522 25 32 24.5523 32 24C32 23.4477 31.5522 23 31 23C30.4478 23 30 23.4477 30 24C30 24.5523 30.4478 25 31 25Z" fill="#FF7D4E"/>
<path d="M33 29C33.5522 29 34 28.5523 34 28C34 27.4477 33.5522 27 33 27C32.4478 27 32 27.4477 32 28C32 28.5523 32.4478 29 33 29Z" fill="#FF7D4E"/>
<path d="M35 25C35.5522 25 36 24.5523 36 24C36 23.4477 35.5522 23 35 23C34.4478 23 34 23.4477 34 24C34 24.5523 34.4478 25 35 25Z" fill="#FF7D4E"/>
<path d="M5 37C5.55225 37 6 36.5523 6 36C6 35.4477 5.55225 35 5 35C4.44775 35 4 35.4477 4 36C4 36.5523 4.44775 37 5 37Z" fill="#FF7D4E"/>
<path d="M8 32C8 32.5523 7.55225 33 7 33C6.44775 33 6 32.5523 6 32C6 31.4477 6.44775 31 7 31C7.55225 31 8 31.4477 8 32Z" fill="#FF7D4E"/>
<path d="M14 36C14 36.5523 13.5522 37 13 37C12.4478 37 12 36.5523 12 36C12 35.4477 12.4478 35 13 35C13.5522 35 14 35.4477 14 36Z" fill="#FF7D4E"/>
<path d="M15 33C15.5522 33 16 32.5523 16 32C16 31.4477 15.5522 31 15 31C14.4478 31 14 31.4477 14 32C14 32.5523 14.4478 33 15 33Z" fill="#FF7D4E"/>
<path d="M21 37C21.5522 37 22 36.5523 22 36C22 35.4477 21.5522 35 21 35C20.4478 35 20 35.4477 20 36C20 36.5523 20.4478 37 21 37Z" fill="#FF7D4E"/>
<path d="M24 32C24 32.5523 23.5522 33 23 33C22.4478 33 22 32.5523 22 32C22 31.4477 22.4478 31 23 31C23.5522 31 24 31.4477 24 32Z" fill="#FF7D4E"/>
<path d="M10 36C10 36.5523 9.55225 37 9 37C8.44775 37 8 36.5523 8 36C8 35.4477 8.44775 35 9 35C9.55225 35 10 35.4477 10 36Z" fill="#FF7D4E"/>
<path d="M11 33C11.5522 33 12 32.5523 12 32C12 31.4477 11.5522 31 11 31C10.4478 31 10 31.4477 10 32C10 32.5523 10.4478 33 11 33Z" fill="#FF7D4E"/>
<path d="M17 37C17.5522 37 18 36.5523 18 36C18 35.4477 17.5522 35 17 35C16.4478 35 16 35.4477 16 36C16 36.5523 16.4478 37 17 37Z" fill="#FF7D4E"/>
<path d="M20 32C20 32.5523 19.5522 33 19 33C18.4478 33 18 32.5523 18 32C18 31.4477 18.4478 31 19 31C19.5522 31 20 31.4477 20 32Z" fill="#FF7D4E"/>
<path d="M26 36C26 36.5523 25.5522 37 25 37C24.4478 37 24 36.5523 24 36C24 35.4477 24.4478 35 25 35C25.5522 35 26 35.4477 26 36Z" fill="#FF7D4E"/>
<path d="M27 33C27.5522 33 28 32.5523 28 32C28 31.4477 27.5522 31 27 31C26.4478 31 26 31.4477 26 32C26 32.5523 26.4478 33 27 33Z" fill="#FF7D4E"/>
<path d="M29 37C29.5522 37 30 36.5523 30 36C30 35.4477 29.5522 35 29 35C28.4478 35 28 35.4477 28 36C28 36.5523 28.4478 37 29 37Z" fill="#FF7D4E"/>
<path d="M31 33C31.5522 33 32 32.5523 32 32C32 31.4477 31.5522 31 31 31C30.4478 31 30 31.4477 30 32C30 32.5523 30.4478 33 31 33Z" fill="#FF7D4E"/>
<path d="M33 37C33.5522 37 34 36.5523 34 36C34 35.4477 33.5522 35 33 35C32.4478 35 32 35.4477 32 36C32 36.5523 32.4478 37 33 37Z" fill="#FF7D4E"/>
<path d="M35 33C35.5522 33 36 32.5523 36 32C36 31.4477 35.5522 31 35 31C34.4478 31 34 31.4477 34 32C34 32.5523 34.4478 33 35 33Z" fill="#FF7D4E"/>
<path d="M8 40C8 40.5523 7.55225 41 7 41C6.44775 41 6 40.5523 6 40C6 39.4477 6.44775 39 7 39C7.55225 39 8 39.4477 8 40Z" fill="#FF7D4E"/>
<path d="M15 41C15.5522 41 16 40.5523 16 40C16 39.4477 15.5522 39 15 39C14.4478 39 14 39.4477 14 40C14 40.5523 14.4478 41 15 41Z" fill="#FF7D4E"/>
<path d="M24 40C24 40.5523 23.5522 41 23 41C22.4478 41 22 40.5523 22 40C22 39.4477 22.4478 39 23 39C23.5522 39 24 39.4477 24 40Z" fill="#FF7D4E"/>
<path d="M11 41C11.5522 41 12 40.5523 12 40C12 39.4477 11.5522 39 11 39C10.4478 39 10 39.4477 10 40C10 40.5523 10.4478 41 11 41Z" fill="#FF7D4E"/>
<path d="M20 40C20 40.5523 19.5522 41 19 41C18.4478 41 18 40.5523 18 40C18 39.4477 18.4478 39 19 39C19.5522 39 20 39.4477 20 40Z" fill="#FF7D4E"/>
<path d="M27 41C27.5522 41 28 40.5523 28 40C28 39.4477 27.5522 39 27 39C26.4478 39 26 39.4477 26 40C26 40.5523 26.4478 41 27 41Z" fill="#FF7D4E"/>
<path d="M31 41C31.5522 41 32 40.5523 32 40C32 39.4477 31.5522 39 31 39C30.4478 39 30 39.4477 30 40C30 40.5523 30.4478 41 31 41Z" fill="#FF7D4E"/>
<path d="M35 41C35.5522 41 36 40.5523 36 40C36 39.4477 35.5522 39 35 39C34.4478 39 34 39.4477 34 40C34 40.5523 34.4478 41 35 41Z" fill="#FF7D4E"/>
<path d="M5 45C5.55225 45 6 44.5523 6 44C6 43.4477 5.55225 43 5 43C4.44775 43 4 43.4477 4 44C4 44.5523 4.44775 45 5 45Z" fill="#FF7D4E"/>
<path d="M14 44C14 44.5523 13.5522 45 13 45C12.4478 45 12 44.5523 12 44C12 43.4477 12.4478 43 13 43C13.5522 43 14 43.4477 14 44Z" fill="#FF7D4E"/>
<path d="M21 45C21.5522 45 22 44.5523 22 44C22 43.4477 21.5522 43 21 43C20.4478 43 20 43.4477 20 44C20 44.5523 20.4478 45 21 45Z" fill="#FF7D4E"/>
<path d="M10 44C10 44.5523 9.55225 45 9 45C8.44775 45 8 44.5523 8 44C8 43.4477 8.44775 43 9 43C9.55225 43 10 43.4477 10 44Z" fill="#FF7D4E"/>
<path d="M17 45C17.5522 45 18 44.5523 18 44C18 43.4477 17.5522 43 17 43C16.4478 43 16 43.4477 16 44C16 44.5523 16.4478 45 17 45Z" fill="#FF7D4E"/>
<path d="M26 44C26 44.5523 25.5522 45 25 45C24.4478 45 24 44.5523 24 44C24 43.4477 24.4478 43 25 43C25.5522 43 26 43.4477 26 44Z" fill="#FF7D4E"/>
<path d="M29 45C29.5522 45 30 44.5523 30 44C30 43.4477 29.5522 43 29 43C28.4478 43 28 43.4477 28 44C28 44.5523 28.4478 45 29 45Z" fill="#FF7D4E"/>
<path d="M33 45C33.5522 45 34 44.5523 34 44C34 43.4477 33.5522 43 33 43C32.4478 43 32 43.4477 32 44C32 44.5523 32.4478 45 33 45Z" fill="#FF7D4E"/>
<path d="M8 48C8 48.5523 7.55225 49 7 49C6.44775 49 6 48.5523 6 48C6 47.4477 6.44775 47 7 47C7.55225 47 8 47.4477 8 48Z" fill="#FF7D4E"/>
<path d="M15 49C15.5522 49 16 48.5523 16 48C16 47.4477 15.5522 47 15 47C14.4478 47 14 47.4477 14 48C14 48.5523 14.4478 49 15 49Z" fill="#FF7D4E"/>
<path d="M24 48C24 48.5523 23.5522 49 23 49C22.4478 49 22 48.5523 22 48C22 47.4477 22.4478 47 23 47C23.5522 47 24 47.4477 24 48Z" fill="#FF7D4E"/>
<path d="M11 49C11.5522 49 12 48.5523 12 48C12 47.4477 11.5522 47 11 47C10.4478 47 10 47.4477 10 48C10 48.5523 10.4478 49 11 49Z" fill="#FF7D4E"/>
<path d="M20 48C20 48.5523 19.5522 49 19 49C18.4478 49 18 48.5523 18 48C18 47.4477 18.4478 47 19 47C19.5522 47 20 47.4477 20 48Z" fill="#FF7D4E"/>
<path d="M27 49C27.5522 49 28 48.5523 28 48C28 47.4477 27.5522 47 27 47C26.4478 47 26 47.4477 26 48C26 48.5523 26.4478 49 27 49Z" fill="#FF7D4E"/>
<path d="M31 49C31.5522 49 32 48.5523 32 48C32 47.4477 31.5522 47 31 47C30.4478 47 30 47.4477 30 48C30 48.5523 30.4478 49 31 49Z" fill="#FF7D4E"/>
<path d="M35 49C35.5522 49 36 48.5523 36 48C36 47.4477 35.5522 47 35 47C34.4478 47 34 47.4477 34 48C34 48.5523 34.4478 49 35 49Z" fill="#FF7D4E"/>
<path d="M5 13C5.55225 13 6 12.5523 6 12C6 11.4477 5.55225 11 5 11C4.44775 11 4 11.4477 4 12C4 12.5523 4.44775 13 5 13Z" stroke="#FF7D4E" stroke-width="2" mask="url(#path-2-inside-1_537_11935)"/>
<path d="M5 21C5.55225 21 6 20.5523 6 20C6 19.4477 5.55225 19 5 19C4.44775 19 4 19.4477 4 20C4 20.5523 4.44775 21 5 21Z" stroke="#FF7D4E" stroke-width="2" mask="url(#path-2-inside-1_537_11935)"/>
<path d="M8 16C8 16.5523 7.55225 17 7 17C6.44775 17 6 16.5523 6 16C6 15.4477 6.44775 15 7 15C7.55225 15 8 15.4477 8 16Z" stroke="#FF7D4E" stroke-width="2" mask="url(#path-2-inside-1_537_11935)"/>
<path d="M13 13C13.5522 13 14 12.5523 14 12C14 11.4477 13.5522 11 13 11C12.4478 11 12 11.4477 12 12C12 12.5523 12.4478 13 13 13Z" stroke="#FF7D4E" stroke-width="2" mask="url(#path-2-inside-1_537_11935)"/>
<path d="M14 20C14 20.5523 13.5522 21 13 21C12.4478 21 12 20.5523 12 20C12 19.4477 12.4478 19 13 19C13.5522 19 14 19.4477 14 20Z" stroke="#FF7D4E" stroke-width="2" mask="url(#path-2-inside-1_537_11935)"/>
<path d="M15 17C15.5522 17 16 16.5523 16 16C16 15.4477 15.5522 15 15 15C14.4478 15 14 15.4477 14 16C14 16.5523 14.4478 17 15 17Z" stroke="#FF7D4E" stroke-width="2" mask="url(#path-2-inside-1_537_11935)"/>
<path d="M22 12C22 12.5523 21.5522 13 21 13C20.4478 13 20 12.5523 20 12C20 11.4477 20.4478 11 21 11C21.5522 11 22 11.4477 22 12Z" stroke="#FF7D4E" stroke-width="2" mask="url(#path-2-inside-1_537_11935)"/>
<path d="M21 21C21.5522 21 22 20.5523 22 20C22 19.4477 21.5522 19 21 19C20.4478 19 20 19.4477 20 20C20 20.5523 20.4478 21 21 21Z" stroke="#FF7D4E" stroke-width="2" mask="url(#path-2-inside-1_537_11935)"/>
<path d="M24 16C24 16.5523 23.5522 17 23 17C22.4478 17 22 16.5523 22 16C22 15.4477 22.4478 15 23 15C23.5522 15 24 15.4477 24 16Z" stroke="#FF7D4E" stroke-width="2" mask="url(#path-2-inside-1_537_11935)"/>
<path d="M9 13C9.55225 13 10 12.5523 10 12C10 11.4477 9.55225 11 9 11C8.44775 11 8 11.4477 8 12C8 12.5523 8.44775 13 9 13Z" stroke="#FF7D4E" stroke-width="2" mask="url(#path-2-inside-1_537_11935)"/>
<path d="M10 20C10 20.5523 9.55225 21 9 21C8.44775 21 8 20.5523 8 20C8 19.4477 8.44775 19 9 19C9.55225 19 10 19.4477 10 20Z" stroke="#FF7D4E" stroke-width="2" mask="url(#path-2-inside-1_537_11935)"/>
<path d="M11 17C11.5522 17 12 16.5523 12 16C12 15.4477 11.5522 15 11 15C10.4478 15 10 15.4477 10 16C10 16.5523 10.4478 17 11 17Z" stroke="#FF7D4E" stroke-width="2" mask="url(#path-2-inside-1_537_11935)"/>
<path d="M18 12C18 12.5523 17.5522 13 17 13C16.4478 13 16 12.5523 16 12C16 11.4477 16.4478 11 17 11C17.5522 11 18 11.4477 18 12Z" stroke="#FF7D4E" stroke-width="2" mask="url(#path-2-inside-1_537_11935)"/>
<path d="M17 21C17.5522 21 18 20.5523 18 20C18 19.4477 17.5522 19 17 19C16.4478 19 16 19.4477 16 20C16 20.5523 16.4478 21 17 21Z" stroke="#FF7D4E" stroke-width="2" mask="url(#path-2-inside-1_537_11935)"/>
<path d="M20 16C20 16.5523 19.5522 17 19 17C18.4478 17 18 16.5523 18 16C18 15.4477 18.4478 15 19 15C19.5522 15 20 15.4477 20 16Z" stroke="#FF7D4E" stroke-width="2" mask="url(#path-2-inside-1_537_11935)"/>
<path d="M25 13C25.5522 13 26 12.5523 26 12C26 11.4477 25.5522 11 25 11C24.4478 11 24 11.4477 24 12C24 12.5523 24.4478 13 25 13Z" stroke="#FF7D4E" stroke-width="2" mask="url(#path-2-inside-1_537_11935)"/>
<path d="M26 20C26 20.5523 25.5522 21 25 21C24.4478 21 24 20.5523 24 20C24 19.4477 24.4478 19 25 19C25.5522 19 26 19.4477 26 20Z" stroke="#FF7D4E" stroke-width="2" mask="url(#path-2-inside-1_537_11935)"/>
<path d="M27 17C27.5522 17 28 16.5523 28 16C28 15.4477 27.5522 15 27 15C26.4478 15 26 15.4477 26 16C26 16.5523 26.4478 17 27 17Z" stroke="#FF7D4E" stroke-width="2" mask="url(#path-2-inside-1_537_11935)"/>
<path d="M30 12C30 12.5523 29.5522 13 29 13C28.4478 13 28 12.5523 28 12C28 11.4477 28.4478 11 29 11C29.5522 11 30 11.4477 30 12Z" stroke="#FF7D4E" stroke-width="2" mask="url(#path-2-inside-1_537_11935)"/>
<path d="M29 21C29.5522 21 30 20.5523 30 20C30 19.4477 29.5522 19 29 19C28.4478 19 28 19.4477 28 20C28 20.5523 28.4478 21 29 21Z" stroke="#FF7D4E" stroke-width="2" mask="url(#path-2-inside-1_537_11935)"/>
<path d="M31 17C31.5522 17 32 16.5523 32 16C32 15.4477 31.5522 15 31 15C30.4478 15 30 15.4477 30 16C30 16.5523 30.4478 17 31 17Z" stroke="#FF7D4E" stroke-width="2" mask="url(#path-2-inside-1_537_11935)"/>
<path d="M34 12C34 12.5523 33.5522 13 33 13C32.4478 13 32 12.5523 32 12C32 11.4477 32.4478 11 33 11C33.5522 11 34 11.4477 34 12Z" stroke="#FF7D4E" stroke-width="2" mask="url(#path-2-inside-1_537_11935)"/>
<path d="M33 21C33.5522 21 34 20.5523 34 20C34 19.4477 33.5522 19 33 19C32.4478 19 32 19.4477 32 20C32 20.5523 32.4478 21 33 21Z" stroke="#FF7D4E" stroke-width="2" mask="url(#path-2-inside-1_537_11935)"/>
<path d="M35 17C35.5522 17 36 16.5523 36 16C36 15.4477 35.5522 15 35 15C34.4478 15 34 15.4477 34 16C34 16.5523 34.4478 17 35 17Z" stroke="#FF7D4E" stroke-width="2" mask="url(#path-2-inside-1_537_11935)"/>
<path d="M5 29C5.55225 29 6 28.5523 6 28C6 27.4477 5.55225 27 5 27C4.44775 27 4 27.4477 4 28C4 28.5523 4.44775 29 5 29Z" stroke="#FF7D4E" stroke-width="2" mask="url(#path-2-inside-1_537_11935)"/>
<path d="M8 24C8 24.5523 7.55225 25 7 25C6.44775 25 6 24.5523 6 24C6 23.4477 6.44775 23 7 23C7.55225 23 8 23.4477 8 24Z" stroke="#FF7D4E" stroke-width="2" mask="url(#path-2-inside-1_537_11935)"/>
<path d="M14 28C14 28.5523 13.5522 29 13 29C12.4478 29 12 28.5523 12 28C12 27.4477 12.4478 27 13 27C13.5522 27 14 27.4477 14 28Z" stroke="#FF7D4E" stroke-width="2" mask="url(#path-2-inside-1_537_11935)"/>
<path d="M15 25C15.5522 25 16 24.5523 16 24C16 23.4477 15.5522 23 15 23C14.4478 23 14 23.4477 14 24C14 24.5523 14.4478 25 15 25Z" stroke="#FF7D4E" stroke-width="2" mask="url(#path-2-inside-1_537_11935)"/>
<path d="M21 29C21.5522 29 22 28.5523 22 28C22 27.4477 21.5522 27 21 27C20.4478 27 20 27.4477 20 28C20 28.5523 20.4478 29 21 29Z" stroke="#FF7D4E" stroke-width="2" mask="url(#path-2-inside-1_537_11935)"/>
<path d="M24 24C24 24.5523 23.5522 25 23 25C22.4478 25 22 24.5523 22 24C22 23.4477 22.4478 23 23 23C23.5522 23 24 23.4477 24 24Z" stroke="#FF7D4E" stroke-width="2" mask="url(#path-2-inside-1_537_11935)"/>
<path d="M10 28C10 28.5523 9.55225 29 9 29C8.44775 29 8 28.5523 8 28C8 27.4477 8.44775 27 9 27C9.55225 27 10 27.4477 10 28Z" stroke="#FF7D4E" stroke-width="2" mask="url(#path-2-inside-1_537_11935)"/>
<path d="M11 25C11.5522 25 12 24.5523 12 24C12 23.4477 11.5522 23 11 23C10.4478 23 10 23.4477 10 24C10 24.5523 10.4478 25 11 25Z" stroke="#FF7D4E" stroke-width="2" mask="url(#path-2-inside-1_537_11935)"/>
<path d="M17 29C17.5522 29 18 28.5523 18 28C18 27.4477 17.5522 27 17 27C16.4478 27 16 27.4477 16 28C16 28.5523 16.4478 29 17 29Z" stroke="#FF7D4E" stroke-width="2" mask="url(#path-2-inside-1_537_11935)"/>
<path d="M20 24C20 24.5523 19.5522 25 19 25C18.4478 25 18 24.5523 18 24C18 23.4477 18.4478 23 19 23C19.5522 23 20 23.4477 20 24Z" stroke="#FF7D4E" stroke-width="2" mask="url(#path-2-inside-1_537_11935)"/>
<path d="M26 28C26 28.5523 25.5522 29 25 29C24.4478 29 24 28.5523 24 28C24 27.4477 24.4478 27 25 27C25.5522 27 26 27.4477 26 28Z" stroke="#FF7D4E" stroke-width="2" mask="url(#path-2-inside-1_537_11935)"/>
<path d="M27 25C27.5522 25 28 24.5523 28 24C28 23.4477 27.5522 23 27 23C26.4478 23 26 23.4477 26 24C26 24.5523 26.4478 25 27 25Z" stroke="#FF7D4E" stroke-width="2" mask="url(#path-2-inside-1_537_11935)"/>
<path d="M29 29C29.5522 29 30 28.5523 30 28C30 27.4477 29.5522 27 29 27C28.4478 27 28 27.4477 28 28C28 28.5523 28.4478 29 29 29Z" stroke="#FF7D4E" stroke-width="2" mask="url(#path-2-inside-1_537_11935)"/>
<path d="M31 25C31.5522 25 32 24.5523 32 24C32 23.4477 31.5522 23 31 23C30.4478 23 30 23.4477 30 24C30 24.5523 30.4478 25 31 25Z" stroke="#FF7D4E" stroke-width="2" mask="url(#path-2-inside-1_537_11935)"/>
<path d="M33 29C33.5522 29 34 28.5523 34 28C34 27.4477 33.5522 27 33 27C32.4478 27 32 27.4477 32 28C32 28.5523 32.4478 29 33 29Z" stroke="#FF7D4E" stroke-width="2" mask="url(#path-2-inside-1_537_11935)"/>
<path d="M35 25C35.5522 25 36 24.5523 36 24C36 23.4477 35.5522 23 35 23C34.4478 23 34 23.4477 34 24C34 24.5523 34.4478 25 35 25Z" stroke="#FF7D4E" stroke-width="2" mask="url(#path-2-inside-1_537_11935)"/>
<path d="M5 37C5.55225 37 6 36.5523 6 36C6 35.4477 5.55225 35 5 35C4.44775 35 4 35.4477 4 36C4 36.5523 4.44775 37 5 37Z" stroke="#FF7D4E" stroke-width="2" mask="url(#path-2-inside-1_537_11935)"/>
<path d="M8 32C8 32.5523 7.55225 33 7 33C6.44775 33 6 32.5523 6 32C6 31.4477 6.44775 31 7 31C7.55225 31 8 31.4477 8 32Z" stroke="#FF7D4E" stroke-width="2" mask="url(#path-2-inside-1_537_11935)"/>
<path d="M14 36C14 36.5523 13.5522 37 13 37C12.4478 37 12 36.5523 12 36C12 35.4477 12.4478 35 13 35C13.5522 35 14 35.4477 14 36Z" stroke="#FF7D4E" stroke-width="2" mask="url(#path-2-inside-1_537_11935)"/>
<path d="M15 33C15.5522 33 16 32.5523 16 32C16 31.4477 15.5522 31 15 31C14.4478 31 14 31.4477 14 32C14 32.5523 14.4478 33 15 33Z" stroke="#FF7D4E" stroke-width="2" mask="url(#path-2-inside-1_537_11935)"/>
<path d="M21 37C21.5522 37 22 36.5523 22 36C22 35.4477 21.5522 35 21 35C20.4478 35 20 35.4477 20 36C20 36.5523 20.4478 37 21 37Z" stroke="#FF7D4E" stroke-width="2" mask="url(#path-2-inside-1_537_11935)"/>
<path d="M24 32C24 32.5523 23.5522 33 23 33C22.4478 33 22 32.5523 22 32C22 31.4477 22.4478 31 23 31C23.5522 31 24 31.4477 24 32Z" stroke="#FF7D4E" stroke-width="2" mask="url(#path-2-inside-1_537_11935)"/>
<path d="M10 36C10 36.5523 9.55225 37 9 37C8.44775 37 8 36.5523 8 36C8 35.4477 8.44775 35 9 35C9.55225 35 10 35.4477 10 36Z" stroke="#FF7D4E" stroke-width="2" mask="url(#path-2-inside-1_537_11935)"/>
<path d="M11 33C11.5522 33 12 32.5523 12 32C12 31.4477 11.5522 31 11 31C10.4478 31 10 31.4477 10 32C10 32.5523 10.4478 33 11 33Z" stroke="#FF7D4E" stroke-width="2" mask="url(#path-2-inside-1_537_11935)"/>
<path d="M17 37C17.5522 37 18 36.5523 18 36C18 35.4477 17.5522 35 17 35C16.4478 35 16 35.4477 16 36C16 36.5523 16.4478 37 17 37Z" stroke="#FF7D4E" stroke-width="2" mask="url(#path-2-inside-1_537_11935)"/>
<path d="M20 32C20 32.5523 19.5522 33 19 33C18.4478 33 18 32.5523 18 32C18 31.4477 18.4478 31 19 31C19.5522 31 20 31.4477 20 32Z" stroke="#FF7D4E" stroke-width="2" mask="url(#path-2-inside-1_537_11935)"/>
<path d="M26 36C26 36.5523 25.5522 37 25 37C24.4478 37 24 36.5523 24 36C24 35.4477 24.4478 35 25 35C25.5522 35 26 35.4477 26 36Z" stroke="#FF7D4E" stroke-width="2" mask="url(#path-2-inside-1_537_11935)"/>
<path d="M27 33C27.5522 33 28 32.5523 28 32C28 31.4477 27.5522 31 27 31C26.4478 31 26 31.4477 26 32C26 32.5523 26.4478 33 27 33Z" stroke="#FF7D4E" stroke-width="2" mask="url(#path-2-inside-1_537_11935)"/>
<path d="M29 37C29.5522 37 30 36.5523 30 36C30 35.4477 29.5522 35 29 35C28.4478 35 28 35.4477 28 36C28 36.5523 28.4478 37 29 37Z" stroke="#FF7D4E" stroke-width="2" mask="url(#path-2-inside-1_537_11935)"/>
<path d="M31 33C31.5522 33 32 32.5523 32 32C32 31.4477 31.5522 31 31 31C30.4478 31 30 31.4477 30 32C30 32.5523 30.4478 33 31 33Z" stroke="#FF7D4E" stroke-width="2" mask="url(#path-2-inside-1_537_11935)"/>
<path d="M33 37C33.5522 37 34 36.5523 34 36C34 35.4477 33.5522 35 33 35C32.4478 35 32 35.4477 32 36C32 36.5523 32.4478 37 33 37Z" stroke="#FF7D4E" stroke-width="2" mask="url(#path-2-inside-1_537_11935)"/>
<path d="M35 33C35.5522 33 36 32.5523 36 32C36 31.4477 35.5522 31 35 31C34.4478 31 34 31.4477 34 32C34 32.5523 34.4478 33 35 33Z" stroke="#FF7D4E" stroke-width="2" mask="url(#path-2-inside-1_537_11935)"/>
<path d="M8 40C8 40.5523 7.55225 41 7 41C6.44775 41 6 40.5523 6 40C6 39.4477 6.44775 39 7 39C7.55225 39 8 39.4477 8 40Z" stroke="#FF7D4E" stroke-width="2" mask="url(#path-2-inside-1_537_11935)"/>
<path d="M15 41C15.5522 41 16 40.5523 16 40C16 39.4477 15.5522 39 15 39C14.4478 39 14 39.4477 14 40C14 40.5523 14.4478 41 15 41Z" stroke="#FF7D4E" stroke-width="2" mask="url(#path-2-inside-1_537_11935)"/>
<path d="M24 40C24 40.5523 23.5522 41 23 41C22.4478 41 22 40.5523 22 40C22 39.4477 22.4478 39 23 39C23.5522 39 24 39.4477 24 40Z" stroke="#FF7D4E" stroke-width="2" mask="url(#path-2-inside-1_537_11935)"/>
<path d="M11 41C11.5522 41 12 40.5523 12 40C12 39.4477 11.5522 39 11 39C10.4478 39 10 39.4477 10 40C10 40.5523 10.4478 41 11 41Z" stroke="#FF7D4E" stroke-width="2" mask="url(#path-2-inside-1_537_11935)"/>
<path d="M20 40C20 40.5523 19.5522 41 19 41C18.4478 41 18 40.5523 18 40C18 39.4477 18.4478 39 19 39C19.5522 39 20 39.4477 20 40Z" stroke="#FF7D4E" stroke-width="2" mask="url(#path-2-inside-1_537_11935)"/>
<path d="M27 41C27.5522 41 28 40.5523 28 40C28 39.4477 27.5522 39 27 39C26.4478 39 26 39.4477 26 40C26 40.5523 26.4478 41 27 41Z" stroke="#FF7D4E" stroke-width="2" mask="url(#path-2-inside-1_537_11935)"/>
<path d="M31 41C31.5522 41 32 40.5523 32 40C32 39.4477 31.5522 39 31 39C30.4478 39 30 39.4477 30 40C30 40.5523 30.4478 41 31 41Z" stroke="#FF7D4E" stroke-width="2" mask="url(#path-2-inside-1_537_11935)"/>
<path d="M35 41C35.5522 41 36 40.5523 36 40C36 39.4477 35.5522 39 35 39C34.4478 39 34 39.4477 34 40C34 40.5523 34.4478 41 35 41Z" stroke="#FF7D4E" stroke-width="2" mask="url(#path-2-inside-1_537_11935)"/>
<path d="M5 45C5.55225 45 6 44.5523 6 44C6 43.4477 5.55225 43 5 43C4.44775 43 4 43.4477 4 44C4 44.5523 4.44775 45 5 45Z" stroke="#FF7D4E" stroke-width="2" mask="url(#path-2-inside-1_537_11935)"/>
<path d="M14 44C14 44.5523 13.5522 45 13 45C12.4478 45 12 44.5523 12 44C12 43.4477 12.4478 43 13 43C13.5522 43 14 43.4477 14 44Z" stroke="#FF7D4E" stroke-width="2" mask="url(#path-2-inside-1_537_11935)"/>
<path d="M21 45C21.5522 45 22 44.5523 22 44C22 43.4477 21.5522 43 21 43C20.4478 43 20 43.4477 20 44C20 44.5523 20.4478 45 21 45Z" stroke="#FF7D4E" stroke-width="2" mask="url(#path-2-inside-1_537_11935)"/>
<path d="M10 44C10 44.5523 9.55225 45 9 45C8.44775 45 8 44.5523 8 44C8 43.4477 8.44775 43 9 43C9.55225 43 10 43.4477 10 44Z" stroke="#FF7D4E" stroke-width="2" mask="url(#path-2-inside-1_537_11935)"/>
<path d="M17 45C17.5522 45 18 44.5523 18 44C18 43.4477 17.5522 43 17 43C16.4478 43 16 43.4477 16 44C16 44.5523 16.4478 45 17 45Z" stroke="#FF7D4E" stroke-width="2" mask="url(#path-2-inside-1_537_11935)"/>
<path d="M26 44C26 44.5523 25.5522 45 25 45C24.4478 45 24 44.5523 24 44C24 43.4477 24.4478 43 25 43C25.5522 43 26 43.4477 26 44Z" stroke="#FF7D4E" stroke-width="2" mask="url(#path-2-inside-1_537_11935)"/>
<path d="M29 45C29.5522 45 30 44.5523 30 44C30 43.4477 29.5522 43 29 43C28.4478 43 28 43.4477 28 44C28 44.5523 28.4478 45 29 45Z" stroke="#FF7D4E" stroke-width="2" mask="url(#path-2-inside-1_537_11935)"/>
<path d="M33 45C33.5522 45 34 44.5523 34 44C34 43.4477 33.5522 43 33 43C32.4478 43 32 43.4477 32 44C32 44.5523 32.4478 45 33 45Z" stroke="#FF7D4E" stroke-width="2" mask="url(#path-2-inside-1_537_11935)"/>
<path d="M8 48C8 48.5523 7.55225 49 7 49C6.44775 49 6 48.5523 6 48C6 47.4477 6.44775 47 7 47C7.55225 47 8 47.4477 8 48Z" stroke="#FF7D4E" stroke-width="2" mask="url(#path-2-inside-1_537_11935)"/>
<path d="M15 49C15.5522 49 16 48.5523 16 48C16 47.4477 15.5522 47 15 47C14.4478 47 14 47.4477 14 48C14 48.5523 14.4478 49 15 49Z" stroke="#FF7D4E" stroke-width="2" mask="url(#path-2-inside-1_537_11935)"/>
<path d="M24 48C24 48.5523 23.5522 49 23 49C22.4478 49 22 48.5523 22 48C22 47.4477 22.4478 47 23 47C23.5522 47 24 47.4477 24 48Z" stroke="#FF7D4E" stroke-width="2" mask="url(#path-2-inside-1_537_11935)"/>
<path d="M11 49C11.5522 49 12 48.5523 12 48C12 47.4477 11.5522 47 11 47C10.4478 47 10 47.4477 10 48C10 48.5523 10.4478 49 11 49Z" stroke="#FF7D4E" stroke-width="2" mask="url(#path-2-inside-1_537_11935)"/>
<path d="M20 48C20 48.5523 19.5522 49 19 49C18.4478 49 18 48.5523 18 48C18 47.4477 18.4478 47 19 47C19.5522 47 20 47.4477 20 48Z" stroke="#FF7D4E" stroke-width="2" mask="url(#path-2-inside-1_537_11935)"/>
<path d="M27 49C27.5522 49 28 48.5523 28 48C28 47.4477 27.5522 47 27 47C26.4478 47 26 47.4477 26 48C26 48.5523 26.4478 49 27 49Z" stroke="#FF7D4E" stroke-width="2" mask="url(#path-2-inside-1_537_11935)"/>
<path d="M31 49C31.5522 49 32 48.5523 32 48C32 47.4477 31.5522 47 31 47C30.4478 47 30 47.4477 30 48C30 48.5523 30.4478 49 31 49Z" stroke="#FF7D4E" stroke-width="2" mask="url(#path-2-inside-1_537_11935)"/>
<path d="M35 49C35.5522 49 36 48.5523 36 48C36 47.4477 35.5522 47 35 47C34.4478 47 34 47.4477 34 48C34 48.5523 34.4478 49 35 49Z" stroke="#FF7D4E" stroke-width="2" mask="url(#path-2-inside-1_537_11935)"/>
<mask id="path-3-inside-2_537_11935" fill="white">
<path fill-rule="evenodd" clip-rule="evenodd" d="M20.5357 21.0357L22 22.5L23.5 21L25 22.5L26.5 21L28 22.5L29.5 21L31 22.5L32.5 21L34 22.5L35.5 21L37 22.5L38.5 21L40 22.5L41.5 21L43 22.5L44.5 21L46 22.5L47.4643 21.0357C48.9007 21.2589 50 22.5011 50 24V50C50 51.6569 48.6569 53 47 53H21C19.3431 53 18 51.6569 18 50V24C18 22.5011 19.0993 21.2589 20.5357 21.0357Z"/>
</mask>
<path fill-rule="evenodd" clip-rule="evenodd" d="M20.5357 21.0357L22 22.5L23.5 21L25 22.5L26.5 21L28 22.5L29.5 21L31 22.5L32.5 21L34 22.5L35.5 21L37 22.5L38.5 21L40 22.5L41.5 21L43 22.5L44.5 21L46 22.5L47.4643 21.0357C48.9007 21.2589 50 22.5011 50 24V50C50 51.6569 48.6569 53 47 53H21C19.3431 53 18 51.6569 18 50V24C18 22.5011 19.0993 21.2589 20.5357 21.0357Z" fill="white"/>
<path d="M20.5357 21.0357L21.9499 19.6215L21.232 18.9035L20.2287 19.0594L20.5357 21.0357ZM22 22.5L20.5858 23.9142L22 25.3284L23.4142 23.9142L22 22.5ZM23.5 21L24.9142 19.5858L23.5 18.1716L22.0858 19.5858L23.5 21ZM25 22.5L23.5858 23.9142L25 25.3284L26.4142 23.9142L25 22.5ZM26.5 21L27.9142 19.5858L26.5 18.1716L25.0858 19.5858L26.5 21ZM28 22.5L26.5858 23.9142L28 25.3284L29.4142 23.9142L28 22.5ZM29.5 21L30.9142 19.5858L29.5 18.1716L28.0858 19.5858L29.5 21ZM31 22.5L29.5858 23.9142L31 25.3284L32.4142 23.9142L31 22.5ZM32.5 21L33.9142 19.5858L32.5 18.1716L31.0858 19.5858L32.5 21ZM34 22.5L32.5858 23.9142L34 25.3284L35.4142 23.9142L34 22.5ZM35.5 21L36.9142 19.5858L35.5 18.1716L34.0858 19.5858L35.5 21ZM37 22.5L35.5858 23.9142L37 25.3284L38.4142 23.9142L37 22.5ZM38.5 21L39.9142 19.5858L38.5 18.1716L37.0858 19.5858L38.5 21ZM40 22.5L38.5858 23.9142L40 25.3284L41.4142 23.9142L40 22.5ZM41.5 21L42.9142 19.5858L41.5 18.1716L40.0858 19.5858L41.5 21ZM43 22.5L41.5858 23.9142L43 25.3284L44.4142 23.9142L43 22.5ZM44.5 21L45.9142 19.5858L44.5 18.1716L43.0858 19.5858L44.5 21ZM46 22.5L44.5858 23.9142L46 25.3284L47.4142 23.9142L46 22.5ZM47.4643 21.0357L47.7713 19.0594L46.768 18.9035L46.0501 19.6215L47.4643 21.0357ZM19.1215 22.4499L20.5858 23.9142L23.4142 21.0858L21.9499 19.6215L19.1215 22.4499ZM23.4142 23.9142L24.9142 22.4142L22.0858 19.5858L20.5858 21.0858L23.4142 23.9142ZM22.0858 22.4142L23.5858 23.9142L26.4142 21.0858L24.9142 19.5858L22.0858 22.4142ZM26.4142 23.9142L27.9142 22.4142L25.0858 19.5858L23.5858 21.0858L26.4142 23.9142ZM25.0858 22.4142L26.5858 23.9142L29.4142 21.0858L27.9142 19.5858L25.0858 22.4142ZM29.4142 23.9142L30.9142 22.4142L28.0858 19.5858L26.5858 21.0858L29.4142 23.9142ZM28.0858 22.4142L29.5858 23.9142L32.4142 21.0858L30.9142 19.5858L28.0858 22.4142ZM32.4142 23.9142L33.9142 22.4142L31.0858 19.5858L29.5858 21.0858L32.4142 23.9142ZM31.0858 22.4142L32.5858 23.9142L35.4142 21.0858L33.9142 19.5858L31.0858 22.4142ZM35.4142 23.9142L36.9142 22.4142L34.0858 19.5858L32.5858 21.0858L35.4142 23.9142ZM38.4142 21.0858L36.9142 19.5858L34.0858 22.4142L35.5858 23.9142L38.4142 21.0858ZM37.0858 19.5858L35.5858 21.0858L38.4142 23.9142L39.9142 22.4142L37.0858 19.5858ZM41.4142 21.0858L39.9142 19.5858L37.0858 22.4142L38.5858 23.9142L41.4142 21.0858ZM40.0858 19.5858L38.5858 21.0858L41.4142 23.9142L42.9142 22.4142L40.0858 19.5858ZM44.4142 21.0858L42.9142 19.5858L40.0858 22.4142L41.5858 23.9142L44.4142 21.0858ZM43.0858 19.5858L41.5858 21.0858L44.4142 23.9142L45.9142 22.4142L43.0858 19.5858ZM47.4142 21.0858L45.9142 19.5858L43.0858 22.4142L44.5858 23.9142L47.4142 21.0858ZM46.0501 19.6215L44.5858 21.0858L47.4142 23.9142L48.8785 22.4499L46.0501 19.6215ZM47.1572 23.012C47.6343 23.0861 48 23.5022 48 24H52C52 21.4999 50.167 19.4316 47.7713 19.0594L47.1572 23.012ZM48 24V50H52V24H48ZM48 50C48 50.5523 47.5523 51 47 51V55C49.7614 55 52 52.7614 52 50H48ZM47 51H21V55H47V51ZM21 51C20.4477 51 20 50.5523 20 50H16C16 52.7614 18.2386 55 21 55V51ZM20 50V24H16V50H20ZM20 24C20 23.5022 20.3657 23.0861 20.8428 23.012L20.2287 19.0594C17.833 19.4316 16 21.4999 16 24H20Z" fill="black" mask="url(#path-3-inside-2_537_11935)"/>
</svg>
