<svg width="16" height="16" viewBox="0 0 16 16" fill="none" xmlns="http://www.w3.org/2000/svg">
<g clip-path="url(#clip0_1513_0)">
<rect width="16" height="16" fill="white"/>
<mask id="mask0_1513_0" style="mask-type:alpha" maskUnits="userSpaceOnUse" x="0" y="0" width="16" height="16">
<rect width="16" height="16" fill="#C4C4C4"/>
</mask>
<g mask="url(#mask0_1513_0)">
<path fill-rule="evenodd" clip-rule="evenodd" d="M6.37956 7L9.70901 7.00005L9.70967 9.44353C9.70967 10.3017 8.89277 11.0001 7.99934 11.0001C7.10591 11.0001 6.37891 10.3017 6.37891 9.44353L6.37956 7Z" fill="#FF7D4E"/>
<path fill-rule="evenodd" clip-rule="evenodd" d="M12 7V9.30462C12 11.3239 10.1022 13 8 13C5.89781 13 4 11.3239 4 9.30462V7H2V9.30462C2 12.485 4.68905 15 8 15C11.3109 15 14 12.485 14 9.30462V7H12Z" fill="#725CF0"/>
<path fill-rule="evenodd" clip-rule="evenodd" d="M8 1C5.7931 1 4 2.64067 4 4.65995V7H6.38726V4.65995C6.38726 3.80175 7.06207 3.10342 8 3.10342C8.93793 3.10342 9.70115 3.80175 9.70115 4.65995V7H12V4.65995C12 2.64067 10.2069 1 8 1Z" fill="#FDC672"/>
</g>
</g>
<defs>
<clipPath id="clip0_1513_0">
<rect width="16" height="16" fill="white"/>
</clipPath>
</defs>
</svg>
